<?xml version="1.0" encoding="utf-8"?>
<!-- Generator: Adobe Illustrator 25.0.1, SVG Export Plug-In . SVG Version: 6.00 Build 0)  -->
<svg version="1.0" id="Layer_1" xmlns="http://www.w3.org/2000/svg" xmlns:xlink="http://www.w3.org/1999/xlink" x="0px" y="0px"
	 viewBox="0 0 245 148" style="enable-background:new 0 0 245 148;" xml:space="preserve">
<style type="text/css">
	.st0{fill:#97D700;}
	.st1{fill:none;}
</style>
<g id="Logos_Full_Green">
	<g id="Final-Adjusted">
		<path id="Fill-1" class="st0" d="M64.8,73l-1.5,1.6l-1.7-1.8c0-2.7-0.6-5.5-1.9-7.9h7.1C65.5,67.4,64.8,70.2,64.8,73z M66.6,81.8
			c-1.3,1.7-2.4,3.6-3.2,5.6c-0.8-2-1.9-3.9-3.2-5.6c0.7-1.7,1.2-3.5,1.4-5.4l1.8,1.9l1.8-1.8C65.4,78.3,65.9,80.1,66.6,81.8
			L66.6,81.8L66.6,81.8z M57.7,70.3L57.7,70.3c-1.2,0-2.1-0.9-2.1-2.1c0-0.1,0-0.2,0-0.3c0-0.7,0.2-1.3,0.7-1.8
			c0.2-0.2,0.4-0.4,0.7-0.5c0.8,1.5,1.3,3.1,1.6,4.7C58.3,70.4,58,70.4,57.7,70.3z M69.7,65.6c0.3,0.1,0.6,0.3,0.8,0.6
			c0.4,0.5,0.7,1.2,0.7,1.8c0.1,1.1-0.7,2.2-1.8,2.3c-0.1,0-0.2,0-0.3,0l0,0c-0.3,0-0.7,0-1,0.1C68.4,68.7,68.9,67.1,69.7,65.6
			L69.7,65.6z M94,67.1c-0.2,0-0.3,0.1-0.5,0.1c-6.7,1.1-13,3.6-18.7,7.2c-2.2,1.4-4.2,3.1-6,4.9c-0.6-1.8-0.9-3.7-0.9-5.6l0.1-0.1
			c0.4-0.1,0.9-0.1,1.3-0.1l0,0c3.2-0.1,4.9-2.8,4.9-5.4c0-1.5-0.5-2.9-1.5-4c-0.3-0.4-0.7-0.7-1.2-1c3.2-5.5,9.2-6.2,9.2-7
			s-0.1-1.6-1-1.6h-0.2c-4.5,1-8.5,3.7-11,7.6H58.2c-2.6-3.8-6.4-6.5-10.9-7.6l0,0c-0.1,0-0.2,0-0.3,0c-0.9,0-1,0.7-1,1.6
			s6.4,1.5,9.2,7c-0.4,0.3-0.8,0.6-1.1,0.9c-1,1.1-1.5,2.5-1.5,4c0,2.6,1.7,5.3,4.8,5.4l0,0c0.4,0,0.8,0,1.3,0.1l0.1,0.1
			c0,1.9-0.3,3.8-0.9,5.6c-1.8-1.9-3.8-3.5-6-4.9C46,70.6,39.3,68.1,32.4,67c-1.6-0.2-1.5,0.7-1.2,1.2l0.2,0.4l0.8,1.5l0,0l5.8,11.2
			c0.5,0.9,0.7,0.9,1.6,0.9c0.9,0,2.1-0.1,1.7-0.9c-0.2-0.4-0.4-0.7-0.6-1.1l-0.2-0.3C39.1,77,37,70.8,46,74.5
			c1.5,0.7,3,1.6,4.5,2.5c2.3,1.5,4.3,3.2,6.2,5.2c-2.5,4.7-7.4,7.7-12.8,7.8h-0.8c-0.8,0-1,0.7-1,1.6s0.1,1.6,1,1.6l0,0
			c0.3,0,0.5,0,0.8,0c3.6,0,7,0,9.8-2c2-1.4,3.6-4.3,5-6.4c1.9,2.7,3,4.8,3.3,7.8l0,0c0,0,0,0.1,0,0.1c0,0.8,0.7,0.9,1.4,0.9
			s1.5-0.1,1.5-0.9l0,0c0-0.1,0-0.1,0-0.2c0.3-3,1.5-5.1,3.3-7.8c1.3,2.1,3,5,5,6.4c2.8,2,6.2,2,9.8,2c0.3,0,0.6,0,0.9,0h0.1
			c0.9,0,1-0.7,1-1.6s-0.1-1.6-1-1.6h-0.1c-0.3,0-0.6,0-0.9,0C77.5,90,72.7,87,70.1,82.3c1.8-2,3.9-3.8,6.2-5.2
			c1.3-0.9,2.7-1.6,4.1-2.3c8.8-3.8,7.6,1.4,6.2,4.5l-0.6,1c-0.2,0.3-0.3,0.6-0.4,0.8l-0.1,0.2l0,0c-0.4,0.8,0.8,0.9,1.7,0.9
			s1.2,0,1.6-0.9l0,0l6.7-12.7l0,0l0.2-0.5C96,67.5,96.1,66.6,94,67.1L94,67.1z"/>
		<path id="Fill-3" class="st0" d="M202.7,73.3h-9c-0.4,0.1-0.9-0.1-1.2-0.3c-0.1-0.1-0.1-0.2-0.1-0.3c0-0.3,0.1-0.7,0.4-0.9
			c0.3-0.2,0.7-0.2,1-0.2h12.1v-4.2h-11.7c-0.9,0-1.8,0.1-2.7,0.4c-0.7,0.2-1.3,0.5-1.8,1c-0.5,0.4-0.8,1-1,1.6
			c-0.1,0.3-0.7,3.4,0.4,5.4c0.7,1.2,2,2,3.4,1.9h9c0.5,0,0.8,0.2,0.8,0.7c0,0.3-0.1,0.7-0.3,0.9c-0.3,0.2-0.7,0.3-1.1,0.3h-12.4
			v4.2h12.1c0.9,0,1.8-0.1,2.7-0.4c0.7-0.2,1.3-0.6,1.8-1.1c0.5-0.5,0.8-1,1-1.7c0.2-0.7,0.3-1.5,0.3-2.2
			C206.3,73.3,203.1,73.2,202.7,73.3"/>
		<polygon id="Fill-4" class="st0" points="181.9,83.7 186.2,83.7 186.2,67.3 181.9,67.3 		"/>
		<polyline id="Fill-5" class="st0" points="163.9,71.6 169.9,71.6 169.9,83.7 174.2,83.7 174.2,71.6 180.2,71.6 180.2,67.2 
			163.9,67.2 163.9,71.6 		"/>
		<path id="Fill-6" class="st0" d="M107.7,72.3c1.2,0.8,2.1,1.9,2.8,3.1c1.4,2.5,2.2,5.4,2.4,8.2h4.7c0.2-2.9,1-5.7,2.4-8.2
			c0.7-1.2,1.6-2.3,2.8-3.1v11.3h4.3V67.3c0,0-8.4-1.2-11.9,7.9c-1.6-5.1-6.5-8.4-11.9-7.9v16.4h4.3V72.3"/>
		<path id="Fill-7" class="st0" d="M133.1,74.6V72c1.7,0.5,3.3,1.4,4.5,2.6L133.1,74.6z M140.9,80l0.1,0.2c0.1,0.2,0.2,0.5,0.2,0.7
			l0.6,2.8h4.5c0,0,0,0.4-0.3-1.3c-0.5-3.4-1.9-6.7-4.1-9.4c-0.6-0.7-1.2-1.3-1.9-1.9c-3.2-2.6-7.2-4-11.3-3.8v16.4h4.3V79h7.5
			C140.6,79.3,140.8,79.6,140.9,80L140.9,80z"/>
		<path id="Fill-8" class="st0" d="M158.1,67.3v9.3l-8.8-9.3H145v8.1c1.3,2.5,2.3,5.2,2.7,8c0,0.1,0,0.2,0,0.3h1.6V73.5l8.7,10.2
			h4.5V67.3H158.1"/>
	</g>
	<path id="_" class="st0" d="M207.9,70.8c0-0.6,0.1-1.1,0.4-1.6c0.3-0.5,0.6-0.9,1.1-1.2c1-0.6,2.1-0.6,3.1,0
		c0.5,0.3,0.9,0.7,1.1,1.2c0.5,1,0.5,2.2,0,3.2c-0.3,0.5-0.6,0.9-1.1,1.2c-0.5,0.3-1,0.4-1.5,0.4c-0.5,0-1.1-0.1-1.5-0.4
		c-0.5-0.3-0.9-0.7-1.1-1.2C208,71.9,207.9,71.4,207.9,70.8z M213.5,70.8c0-0.5-0.1-0.9-0.3-1.3c-0.2-0.4-0.5-0.8-0.9-1
		c-0.4-0.2-0.8-0.4-1.3-0.4c-0.4,0-0.9,0.1-1.3,0.3c-0.4,0.2-0.7,0.6-0.9,1c-0.4,0.8-0.4,1.9,0,2.7c0.2,0.4,0.5,0.8,0.9,1
		c0.8,0.5,1.8,0.5,2.6,0c0.4-0.2,0.7-0.6,0.9-1C213.4,71.7,213.5,71.3,213.5,70.8L213.5,70.8z M210.3,71.1v1.4h-0.6v-3.7h1.2
		c0.4,0,0.7,0.1,1,0.3c0.3,0.2,0.4,0.5,0.4,0.8c0,0.3-0.2,0.6-0.5,0.8c0.2,0.1,0.3,0.2,0.4,0.4c0.1,0.2,0.1,0.4,0.1,0.6
		c0,0.2,0,0.4,0,0.5c0,0.1,0,0.2,0.1,0.2v0.1h-0.7c0-0.3,0-0.6,0-0.8c0-0.2,0-0.3-0.1-0.5c-0.1-0.1-0.3-0.2-0.5-0.1L210.3,71.1z
		 M210.3,70.6h0.6c0.2,0,0.4,0,0.5-0.1c0.1-0.1,0.2-0.2,0.2-0.4c0-0.2,0-0.3-0.1-0.4c-0.2-0.1-0.4-0.1-0.6-0.1h-0.6V70.6z"/>
</g>
<rect x="25" y="49" class="st1" width="195" height="50"/>
</svg>
